<svg version="1.1" id="Layer_1" xmlns="http://www.w3.org/2000/svg" xmlns:xlink="http://www.w3.org/1999/xlink" x="0px" y="0px"
	 width="100%" viewBox="0 0 300 300" enable-background="new 0 0 300 300" xml:space="preserve">
<path fill="#FDF5E4" opacity="1.000000" stroke="none" 
	d="
M206.000000,301.000000 
	C137.333344,301.000000 69.166695,301.000000 1.000027,301.000000 
	C1.000018,201.000031 1.000018,101.000061 1.000009,1.000068 
	C100.999947,1.000045 200.999893,1.000045 300.999878,1.000023 
	C300.999939,100.999939 300.999939,200.999878 300.999969,300.999908 
	C269.500000,301.000000 238.000000,301.000000 206.000000,301.000000 
M84.279274,138.834717 
	C84.535011,142.221878 84.790756,145.609039 84.994484,149.827988 
	C85.460892,152.603302 86.035492,155.365585 86.371284,158.156616 
	C87.079552,164.043411 88.314377,169.613541 93.887230,173.506378 
	C93.946701,173.675827 94.006180,173.845261 93.998505,174.834839 
	C97.724655,193.737488 101.584557,212.615311 105.102936,231.556549 
	C106.301468,238.008850 109.529808,242.558090 115.290001,245.369858 
	C127.549744,251.354309 140.619080,252.883148 154.971222,252.361267 
	C161.322479,251.512924 167.673737,250.664566 174.787842,249.851868 
	C178.974060,248.298813 183.258072,246.963577 187.322266,245.138763 
	C192.663071,242.740753 195.730713,238.500580 196.845734,232.630783 
	C200.124924,215.367905 203.622437,198.146591 206.969986,180.896500 
	C207.782104,176.711655 208.037979,172.447449 212.388046,169.872238 
	C213.587692,169.162064 214.385193,167.141983 214.654465,165.598587 
	C215.906876,158.419952 216.909134,151.197662 218.350616,143.383987 
	C219.677261,139.220779 217.396469,136.351578 214.199936,134.820023 
	C208.573486,132.124222 202.782150,129.116913 196.742828,128.071426 
	C183.091782,125.708282 169.247467,124.461609 155.389557,121.859940 
	C155.284302,116.959824 154.702606,112.005486 155.251877,107.179863 
	C155.583221,104.268806 157.672195,101.557816 159.802246,98.911308 
	C172.567032,97.680565 184.047806,93.307808 193.489136,84.473572 
	C202.002655,76.507515 207.630753,66.994484 208.157227,54.946918 
	C208.284454,52.035259 207.248245,50.473335 204.418564,50.279812 
	C188.743057,49.207787 174.327698,51.983471 162.402954,64.328522 
	C155.486771,71.806595 152.778564,81.139931 150.965897,90.949921 
	C150.281189,89.734726 150.095276,88.649590 149.907211,87.564827 
	C145.542618,62.391621 123.754791,46.656994 98.920990,50.433578 
	C94.697525,51.075855 93.720100,52.856766 94.168106,56.677227 
	C96.874260,79.754211 119.420090,99.232712 143.727600,99.136688 
	C144.586639,101.028900 146.108902,102.895920 146.181900,104.817993 
	C146.412018,110.875778 146.098465,116.954216 145.079315,123.036560 
	C134.730743,124.048454 124.296341,124.538940 114.058662,126.224396 
	C104.535561,127.792206 94.803116,129.486420 86.393303,136.132843 
	C85.882660,136.877335 85.372017,137.621826 84.279274,138.834717 
z"/>
<path fill="#985620" opacity="1.000000" stroke="none" 
	d="
M154.065735,252.206314 
	C140.619080,252.883148 127.549744,251.354309 115.290001,245.369858 
	C109.529808,242.558090 106.301468,238.008850 105.102936,231.556549 
	C101.584557,212.615311 97.724655,193.737488 94.327805,174.581726 
	C97.143257,175.942169 99.496162,177.826904 102.137505,179.124573 
	C117.540031,186.691803 134.259903,187.918320 150.953690,189.373505 
	C151.008255,191.295929 151.113037,192.860565 151.192307,194.426498 
	C151.471054,199.932205 156.479721,204.034134 155.563461,209.994934 
	C154.861191,214.563644 155.299652,219.335785 154.350998,223.831833 
	C153.001144,230.229355 156.758255,237.107727 152.263794,243.215103 
	C151.644470,244.056671 152.475113,246.042068 152.780151,247.466736 
	C153.122345,249.065079 153.630051,250.627991 154.065735,252.206314 
z"/>
<path fill="#794217" opacity="1.000000" stroke="none" 
	d="
M218.000916,143.990997 
	C216.909134,151.197662 215.906876,158.419952 214.654465,165.598587 
	C214.385193,167.141983 213.587692,169.162064 212.388046,169.872238 
	C208.037979,172.447449 207.782104,176.711655 206.969986,180.896500 
	C203.622437,198.146591 200.124924,215.367905 196.845734,232.630783 
	C195.730713,238.500580 192.663071,242.740753 187.322266,245.138763 
	C183.258072,246.963577 178.974060,248.298813 174.576584,249.516205 
	C175.207596,246.666748 176.501572,244.208344 176.817719,241.630035 
	C178.665512,226.561111 180.343796,211.470444 181.946503,196.373001 
	C182.471375,191.428864 180.118683,189.080429 174.959900,189.019821 
	C169.308548,188.953445 163.655975,188.990448 157.943069,188.643311 
	C157.256943,186.878555 156.631683,185.452896 156.459641,184.019104 
	C159.939636,183.998795 162.966400,183.986618 166.410233,183.971375 
	C172.982513,183.014923 179.113510,181.827606 185.301102,181.186554 
	C189.784836,180.722015 191.594894,178.239304 191.924194,174.224014 
	C192.367371,168.820343 192.645172,163.403107 193.246933,157.731567 
	C196.993622,156.279495 200.487335,155.087585 204.307449,153.780716 
	C209.089539,150.440842 213.545227,147.215927 218.000916,143.990997 
z"/>
<path fill="#377A2D" opacity="1.000000" stroke="none" 
	d="
M143.032440,98.788979 
	C119.420090,99.232712 96.874260,79.754211 94.168106,56.677227 
	C93.720100,52.856766 94.697525,51.075855 98.920990,50.433578 
	C123.754791,46.656994 145.542618,62.391621 149.907211,87.564827 
	C150.095276,88.649590 150.281189,89.734726 150.965897,90.949921 
	C152.778564,81.139931 155.486771,71.806595 162.703644,64.599747 
	C162.963684,67.385551 163.823807,71.548859 162.734482,72.143997 
	C156.235962,75.694450 160.052307,79.307106 161.857544,83.327805 
	C159.515579,86.331306 157.307068,89.023430 155.138657,91.747459 
	C151.800934,95.940392 150.095428,95.669922 146.737015,91.688301 
	C141.822998,85.862396 136.711487,80.136505 131.128525,74.968155 
	C128.122116,72.185020 123.958214,70.652252 120.316551,68.555328 
	C119.994995,69.002907 119.673439,69.450493 119.351883,69.898071 
	C121.588646,71.942223 123.810707,74.002739 126.064888,76.027496 
	C133.247177,82.478806 139.955994,89.278763 143.032440,98.788979 
z"/>
<path fill="#91501D" opacity="1.000000" stroke="none" 
	d="
M158.003937,188.982391 
	C163.655975,188.990448 169.308548,188.953445 174.959900,189.019821 
	C180.118683,189.080429 182.471375,191.428864 181.946503,196.373001 
	C180.343796,211.470444 178.665512,226.561111 176.817719,241.630035 
	C176.501572,244.208344 175.207596,246.666748 174.195160,249.498383 
	C167.673737,250.664566 161.322479,251.512924 154.518478,252.283783 
	C153.630051,250.627991 153.122345,249.065079 152.780151,247.466736 
	C152.475113,246.042068 151.644470,244.056671 152.263794,243.215103 
	C156.758255,237.107727 153.001144,230.229355 154.350998,223.831833 
	C155.299652,219.335785 154.861191,214.563644 155.563461,209.994934 
	C156.479721,204.034134 151.471054,199.932205 151.192307,194.426498 
	C151.113037,192.860565 151.008255,191.295929 151.392181,189.366730 
	C153.914108,188.995956 155.959015,188.989166 158.003937,188.982391 
z"/>
<path fill="#377A2D" opacity="1.000000" stroke="none" 
	d="
M162.008957,83.030716 
	C160.052307,79.307106 156.235962,75.694450 162.734482,72.143997 
	C163.823807,71.548859 162.963684,67.385551 163.006821,64.457764 
	C174.327698,51.983471 188.743057,49.207787 204.418564,50.279812 
	C207.248245,50.473335 208.284454,52.035259 208.157227,54.946918 
	C207.630753,66.994484 202.002655,76.507515 193.489136,84.473572 
	C184.047806,93.307808 172.567032,97.680565 159.384949,98.480713 
	C163.895081,91.747482 168.610901,85.262123 173.832855,79.213753 
	C176.759598,75.823807 180.524429,73.157410 183.911652,70.165009 
	C183.695572,69.780815 183.479507,69.396622 183.263428,69.012428 
	C181.867523,69.492668 180.266159,69.683006 179.110382,70.502090 
	C173.345596,74.587555 167.697876,78.838196 162.008957,83.030716 
z"/>
<path fill="#995620" opacity="1.000000" stroke="none" 
	d="
M93.936638,172.969940 
	C88.314377,169.613541 87.079552,164.043411 86.371284,158.156616 
	C86.035492,155.365585 85.460892,152.603302 85.232948,149.280090 
	C85.658676,148.458481 85.845940,148.184753 86.400406,147.938934 
	C89.490326,149.457230 92.098427,151.230026 94.955460,152.389435 
	C107.787811,157.597015 121.280411,159.876541 135.056198,161.385803 
	C136.242126,162.504272 137.384247,163.242172 138.509506,164.004944 
	C139.621460,164.758652 140.716385,165.537506 141.818771,166.305328 
	C140.849030,167.208481 139.822479,168.058975 138.923981,169.028198 
	C137.809937,170.229935 136.801971,171.530014 135.748184,172.787613 
	C136.152084,173.159378 136.555984,173.531128 136.959885,173.902878 
	C138.411163,173.384857 139.862457,172.866837 142.780411,171.825302 
	C143.222565,176.243164 143.609741,180.111740 143.543335,183.985291 
	C137.372131,183.485809 131.481033,183.685089 125.973724,182.327469 
	C115.181602,179.667053 104.603386,176.138931 93.936638,172.969940 
z"/>
<path fill="#235419" opacity="1.000000" stroke="none" 
	d="
M161.857544,83.327805 
	C167.697876,78.838196 173.345596,74.587555 179.110382,70.502090 
	C180.266159,69.683006 181.867523,69.492668 183.263428,69.012428 
	C183.479507,69.396622 183.695572,69.780815 183.911652,70.165009 
	C180.524429,73.157410 176.759598,75.823807 173.832855,79.213753 
	C168.610901,85.262123 163.895081,91.747482 158.969513,98.403519 
	C157.672195,101.557816 155.583221,104.268806 155.251877,107.179863 
	C154.702606,112.005486 155.284302,116.959824 155.319870,122.710358 
	C155.266388,124.965416 155.282608,126.370071 155.218781,128.214020 
	C155.383636,132.247406 155.914520,135.851913 155.784088,139.432343 
	C155.677399,142.361084 154.012680,144.300842 150.614517,144.061646 
	C147.315643,143.829437 145.974121,142.036499 145.995087,138.890182 
	C146.019272,135.262161 145.984909,131.633743 146.012009,127.591049 
	C146.030472,125.792610 146.012894,124.408638 145.995331,123.024666 
	C146.098465,116.954216 146.412018,110.875778 146.181900,104.817993 
	C146.108902,102.895920 144.586639,101.028900 143.380020,98.962830 
	C139.955994,89.278763 133.247177,82.478806 126.064888,76.027496 
	C123.810707,74.002739 121.588646,71.942223 119.351883,69.898071 
	C119.673439,69.450493 119.994995,69.002907 120.316551,68.555328 
	C123.958214,70.652252 128.122116,72.185020 131.128525,74.968155 
	C136.711487,80.136505 141.822998,85.862396 146.737015,91.688301 
	C150.095428,95.669922 151.800934,95.940392 155.138657,91.747459 
	C157.307068,89.023430 159.515579,86.331306 161.857544,83.327805 
z"/>
<path fill="#A7622C" opacity="1.000000" stroke="none" 
	d="
M135.005005,161.016144 
	C121.280411,159.876541 107.787811,157.597015 94.955460,152.389435 
	C92.098427,151.230026 89.490326,149.457230 86.331696,147.536560 
	C85.550980,144.192978 85.206184,141.279648 84.861382,138.366318 
	C85.372017,137.621826 85.882660,136.877335 87.047729,136.220047 
	C90.589409,136.597137 93.476662,136.887009 96.110550,137.472870 
	C94.124077,143.504135 95.729454,146.028275 103.036003,148.853226 
	C115.915909,153.832993 129.484787,155.326584 143.080353,155.822876 
	C163.079147,156.552887 182.939453,155.315720 202.289963,148.045715 
	C203.103317,150.054504 203.542191,151.975082 203.981049,153.895660 
	C200.487335,155.087585 196.993622,156.279495 192.827057,157.733063 
	C184.771851,159.003067 177.389481,160.011429 169.561554,161.013382 
	C157.745667,161.010040 146.375336,161.013092 135.005005,161.016144 
z"/>
<path fill="#A05E2A" opacity="1.000000" stroke="none" 
	d="
M204.307449,153.780701 
	C203.542191,151.975082 203.103317,150.054504 202.475098,147.755890 
	C208.732819,142.410889 208.444122,139.289856 201.127045,135.559021 
	C199.655472,134.808685 198.104416,133.985718 196.507446,133.745819 
	C182.781998,131.683838 169.037582,129.748123 155.298828,127.774719 
	C155.282608,126.370071 155.266388,124.965416 155.365967,123.160789 
	C169.247467,124.461609 183.091782,125.708282 196.742828,128.071426 
	C202.782150,129.116913 208.573486,132.124222 214.199936,134.820023 
	C217.396469,136.351578 219.677261,139.220779 218.175766,143.687500 
	C213.545227,147.215927 209.089539,150.440842 204.307449,153.780701 
z"/>
<path fill="#9F5D2A" opacity="1.000000" stroke="none" 
	d="
M96.363922,137.176895 
	C93.476662,136.887009 90.589409,136.597137 87.317993,136.139938 
	C94.803116,129.486420 104.535561,127.792206 114.058662,126.224396 
	C124.296341,124.538940 134.730743,124.048454 145.537323,123.030609 
	C146.012894,124.408638 146.030472,125.792610 145.581940,127.606903 
	C128.559113,129.451187 111.833664,129.964996 96.363922,137.176895 
z"/>
<path fill="#7E4416" opacity="1.000000" stroke="none" 
	d="
M93.911934,173.238159 
	C104.603386,176.138931 115.181602,179.667053 125.973724,182.327469 
	C131.481033,183.685089 137.372131,183.485809 144.004272,183.993073 
	C148.614670,184.006332 152.310547,184.016785 156.006424,184.027222 
	C156.631683,185.452896 157.256943,186.878555 157.943069,188.643311 
	C155.959015,188.989166 153.914108,188.995956 151.430695,189.009537 
	C134.259903,187.918320 117.540031,186.691803 102.137505,179.124573 
	C99.496162,177.826904 97.143257,175.942169 94.361382,174.171661 
	C94.006180,173.845261 93.946701,173.675827 93.911934,173.238159 
z"/>
<path fill="#9F5D2A" opacity="1.000000" stroke="none" 
	d="
M84.570328,138.600525 
	C85.206184,141.279648 85.550980,144.192978 85.964493,147.508667 
	C85.845940,148.184753 85.658676,148.458481 85.258957,148.864197 
	C84.790756,145.609039 84.535011,142.221878 84.570328,138.600525 
z"/>
<path fill="#95531E" opacity="1.000000" stroke="none" 
	d="
M156.459641,184.019104 
	C152.310547,184.016785 148.614670,184.006332 144.457855,183.988098 
	C143.609741,180.111740 143.222565,176.243164 142.780411,171.825302 
	C139.862457,172.866837 138.411163,173.384857 136.959885,173.902878 
	C136.555984,173.531128 136.152084,173.159378 135.748184,172.787613 
	C136.801971,171.530014 137.809937,170.229935 138.923981,169.028198 
	C139.822479,168.058975 140.849030,167.208481 141.818771,166.305328 
	C140.716385,165.537506 139.621460,164.758652 138.509506,164.004944 
	C137.384247,163.242172 136.242126,162.504272 135.056198,161.385803 
	C146.375336,161.013092 157.745667,161.010040 169.602783,161.376038 
	C169.874207,163.518356 169.772324,165.315399 169.407288,167.057266 
	C169.119461,168.430679 167.710114,170.189835 168.169754,170.997849 
	C171.043808,176.050186 168.232727,179.920609 165.993179,183.974457 
	C162.966400,183.986618 159.939636,183.998795 156.459641,184.019104 
z"/>
<path fill="#8F4F1C" opacity="1.000000" stroke="none" 
	d="
M166.410233,183.971375 
	C168.232727,179.920609 171.043808,176.050186 168.169754,170.997849 
	C167.710114,170.189835 169.119461,168.430679 169.407288,167.057266 
	C169.772324,165.315399 169.874207,163.518356 170.048355,161.382446 
	C177.389481,160.011429 184.771851,159.003067 192.574081,157.993195 
	C192.645172,163.403107 192.367371,168.820343 191.924194,174.224014 
	C191.594894,178.239304 189.784836,180.722015 185.301102,181.186554 
	C179.113510,181.827606 172.982513,183.014923 166.410233,183.971375 
z"/>
<path fill="#5C3310" opacity="1.000000" stroke="none" 
	d="
M96.110550,137.472870 
	C111.833664,129.964996 128.559113,129.451187 145.545898,128.021362 
	C145.984909,131.633743 146.019272,135.262161 145.995087,138.890182 
	C145.974121,142.036499 147.315643,143.829437 150.614517,144.061646 
	C154.012680,144.300842 155.677399,142.361084 155.784088,139.432343 
	C155.914520,135.851913 155.383636,132.247406 155.218781,128.214020 
	C169.037582,129.748123 182.781998,131.683838 196.507446,133.745819 
	C198.104416,133.985718 199.655472,134.808685 201.127045,135.559021 
	C208.444122,139.289856 208.732819,142.410889 202.100586,147.667664 
	C182.939453,155.315720 163.079147,156.552887 143.080353,155.822876 
	C129.484787,155.326584 115.915909,153.832993 103.036003,148.853226 
	C95.729454,146.028275 94.124077,143.504135 96.110550,137.472870 
z"/>
</svg>