<svg version="1.1" id="Layer_1" xmlns="http://www.w3.org/2000/svg" xmlns:xlink="http://www.w3.org/1999/xlink" x="0px" y="0px"
	 width="100%" viewBox="0 0 300 300" enable-background="new 0 0 300 300" xml:space="preserve">
<path fill="#FDF5E4" opacity="1.000000" stroke="none" 
	d="
M202.000000,301.000000 
	C134.666672,301.000000 67.833359,301.000000 1.000027,301.000000 
	C1.000018,201.000031 1.000018,101.000061 1.000009,1.000067 
	C100.999947,1.000045 200.999893,1.000045 300.999878,1.000022 
	C300.999939,100.999939 300.999939,200.999878 300.999969,300.999908 
	C268.166656,301.000000 235.333328,301.000000 202.000000,301.000000 
M82.876488,148.745422 
	C82.923599,149.496490 82.970703,150.247543 82.826454,151.919495 
	C82.811653,174.237961 82.893272,196.557098 82.738861,218.874588 
	C82.668259,229.078735 87.077637,236.484207 95.860069,241.280807 
	C108.352791,248.103836 121.926216,251.034149 136.866776,252.060440 
	C150.296906,254.042679 163.591583,252.898163 176.772186,250.281387 
	C176.772186,250.281387 176.776672,250.355133 177.664368,250.387604 
	C188.263290,248.789154 198.430344,245.898102 207.527084,240.023239 
	C214.319031,235.636856 218.958374,229.598114 219.010208,221.285416 
	C219.162430,196.865219 218.984116,172.442963 219.126419,147.255753 
	C218.592972,140.357590 213.328995,138.162659 207.565567,135.665161 
	C207.043839,135.491531 206.522110,135.317902 205.356720,134.788422 
	C203.247116,134.170746 201.137497,133.553055 198.433929,132.491241 
	C194.629990,131.694931 190.826050,130.898636 186.376892,129.896210 
	C185.927689,129.908981 185.478500,129.921738 184.667923,129.656372 
	C184.114807,129.780716 183.561691,129.905060 182.352631,129.993759 
	C181.916809,129.959564 181.480988,129.925369 180.655182,129.223373 
	C172.453110,128.493668 164.251053,127.763977 155.855988,126.109787 
	C155.739319,120.704613 155.475784,115.297409 155.550278,109.894867 
	C155.615402,105.172333 157.084274,101.407951 163.765579,102.003853 
	C170.753891,99.487610 178.238571,97.855194 184.625595,94.268272 
	C197.316849,87.140915 205.219894,76.079506 207.018387,61.288105 
	C207.663208,55.985023 206.411942,54.874096 200.998764,54.954712 
	C197.822754,55.002010 194.615082,54.747250 191.475342,55.102676 
	C174.177963,57.060814 156.801025,66.182358 152.574677,87.368004 
	C152.276123,88.864639 151.816650,90.329193 151.371445,92.041588 
	C150.740250,91.447098 150.357101,91.263451 150.322891,91.028893 
	C146.263367,63.198555 121.750999,53.825714 100.179001,55.074883 
	C94.324600,55.413891 93.662819,56.481544 94.456505,62.256313 
	C95.700272,71.305862 99.597343,79.065811 105.794212,85.678856 
	C116.134270,96.713318 129.268219,101.553467 144.640045,103.157990 
	C145.373856,105.153244 146.618332,107.117622 146.741211,109.149818 
	C147.051270,114.277618 146.856323,119.435951 146.606064,124.990562 
	C146.511536,125.673203 146.416992,126.355835 146.169098,127.028130 
	C146.169098,127.028130 146.099045,127.164948 145.171967,127.088829 
	C139.206482,127.441048 133.153641,127.274155 127.294785,128.259995 
	C116.992722,129.993484 106.645348,131.875900 96.649223,134.823029 
	C92.041069,136.181625 88.217224,140.200470 83.515327,143.432632 
	C83.344063,144.287338 83.172798,145.142044 82.822845,146.659119 
	C82.888260,147.107086 82.953674,147.555054 82.876488,148.745422 
z"/>
<path fill="#9A5620" opacity="1.000000" stroke="none" 
	d="
M136.024429,251.876038 
	C121.926216,251.034149 108.352791,248.103836 95.860069,241.280807 
	C87.077637,236.484207 82.668259,229.078735 82.738861,218.874588 
	C82.893272,196.557098 82.811653,174.237961 83.179688,151.461014 
	C83.704597,150.999115 83.876289,150.995697 84.396194,151.033630 
	C92.861115,157.272202 102.522507,160.295624 112.192505,161.705902 
	C126.328354,163.767487 140.727219,164.025513 155.018127,165.424652 
	C155.204742,168.174362 156.226334,170.912888 155.391510,172.852310 
	C153.755325,176.653336 152.932831,179.798492 156.027679,183.239258 
	C156.979843,184.297852 157.847870,186.940384 157.279083,187.616577 
	C153.270218,192.382233 157.009766,196.393738 158.059860,200.679047 
	C158.438416,202.223846 158.805542,203.871628 158.666260,205.426575 
	C157.862503,214.399292 156.824875,223.351501 156.071426,232.327866 
	C155.927872,234.038177 156.491592,235.901901 157.093643,237.562637 
	C158.708694,242.017593 160.521378,246.400894 162.329208,251.000000 
	C159.035889,251.000000 154.901917,250.887604 150.776657,251.029053 
	C145.855347,251.197784 140.941513,251.584015 136.024429,251.876038 
z"/>
<path fill="#377A2D" opacity="1.000000" stroke="none" 
	d="
M144.031891,102.687584 
	C129.268219,101.553467 116.134270,96.713318 105.794212,85.678856 
	C99.597343,79.065811 95.700272,71.305862 94.456505,62.256313 
	C93.662819,56.481544 94.324600,55.413891 100.179001,55.074883 
	C121.750999,53.825714 146.263367,63.198555 150.322891,91.028893 
	C150.357101,91.263451 150.740250,91.447098 151.371445,92.041588 
	C151.816650,90.329193 152.276123,88.864639 152.574677,87.368004 
	C156.801025,66.182358 174.177963,57.060814 191.475342,55.102676 
	C194.615082,54.747250 197.822754,55.002010 200.998764,54.954712 
	C206.411942,54.874096 207.663208,55.985023 207.018387,61.288105 
	C205.219894,76.079506 197.316849,87.140915 184.625595,94.268272 
	C178.238571,97.855194 170.753891,99.487610 163.122757,101.711388 
	C161.433777,101.079636 160.387604,100.740349 159.279358,100.380928 
	C164.085617,88.751572 174.402771,82.171921 181.981018,73.045013 
	C176.493164,75.780846 171.272537,78.877716 166.829529,82.845360 
	C161.563049,87.548363 156.966553,93.001617 152.049301,97.783813 
	C151.677551,96.796654 151.336182,96.155373 150.994812,95.514091 
	C150.322723,96.347816 149.650650,97.181534 148.682938,97.856537 
	C136.259415,81.863342 126.033051,73.574631 119.041000,73.677925 
	C124.308273,78.575096 130.119263,83.255051 135.003799,88.757423 
	C138.635437,92.848412 141.066238,98.005394 144.031891,102.687584 
z"/>
<path fill="#7A4217" opacity="1.000000" stroke="none" 
	d="
M218.935226,148.021515 
	C218.984116,172.442963 219.162430,196.865219 219.010208,221.285416 
	C218.958374,229.598114 214.319031,235.636856 207.527084,240.023239 
	C198.430344,245.898102 188.263290,248.789154 177.446777,250.060883 
	C178.153336,249.404846 179.216370,249.268097 179.980576,248.716980 
	C189.789276,241.643036 195.951797,232.476364 195.987000,219.977585 
	C196.042328,200.331512 196.017075,180.685226 196.342636,160.885986 
	C198.437714,160.144821 200.216095,159.556686 202.364029,158.938644 
	C209.336533,157.069031 215.013672,153.851547 218.935226,148.021515 
z"/>
<path fill="#94521E" opacity="1.000000" stroke="none" 
	d="
M136.445602,251.968231 
	C140.941513,251.584015 145.855347,251.197784 150.776657,251.029053 
	C154.901917,250.887604 159.035889,251.000000 162.329208,251.000000 
	C160.521378,246.400894 158.708694,242.017593 157.093643,237.562637 
	C156.491592,235.901901 155.927872,234.038177 156.071426,232.327866 
	C156.824875,223.351501 157.862503,214.399292 158.666260,205.426575 
	C158.805542,203.871628 158.438416,202.223846 158.059860,200.679047 
	C157.009766,196.393738 153.270218,192.382233 157.279083,187.616577 
	C157.847870,186.940384 156.979843,184.297852 156.027679,183.239258 
	C152.932831,179.798492 153.755325,176.653336 155.391510,172.852310 
	C156.226334,170.912888 155.204742,168.174362 155.432343,165.411713 
	C157.225479,165.030045 158.608566,165.033707 160.051239,165.361786 
	C161.075882,165.465469 162.040924,165.244705 163.465881,165.018341 
	C171.285522,164.348938 178.645233,163.685150 185.957123,163.375275 
	C185.569901,164.282822 185.364395,165.084656 184.870163,165.351273 
	C180.425095,167.749252 178.477219,171.087418 179.939102,176.256256 
	C182.179474,184.177628 183.441086,192.158127 181.039337,200.371887 
	C180.431213,202.451553 181.054810,204.859833 180.807251,207.083130 
	C180.306061,211.584259 179.562378,216.057922 178.997772,220.552841 
	C178.870407,221.567017 179.121399,222.622894 179.101639,223.657730 
	C179.069702,225.331696 179.147797,227.040817 178.833527,228.668304 
	C178.398697,230.919800 177.617294,233.102539 177.030930,235.327011 
	C176.178528,238.560715 175.442093,241.826874 174.515274,245.038513 
	C173.797318,247.526352 173.452087,249.697311 176.824585,250.329575 
	C163.591583,252.898163 150.296906,254.042679 136.445602,251.968231 
z"/>
<path fill="#904F1C" opacity="1.000000" stroke="none" 
	d="
M176.798386,250.305481 
	C173.452087,249.697311 173.797318,247.526352 174.515274,245.038513 
	C175.442093,241.826874 176.178528,238.560715 177.030930,235.327011 
	C177.617294,233.102539 178.398697,230.919800 178.833527,228.668304 
	C179.147797,227.040817 179.069702,225.331696 179.101639,223.657730 
	C179.121399,222.622894 178.870407,221.567017 178.997772,220.552841 
	C179.562378,216.057922 180.306061,211.584259 180.807251,207.083130 
	C181.054810,204.859833 180.431213,202.451553 181.039337,200.371887 
	C183.441086,192.158127 182.179474,184.177628 179.939102,176.256256 
	C178.477219,171.087418 180.425095,167.749252 184.870163,165.351273 
	C185.364395,165.084656 185.569901,164.282822 186.351593,163.357330 
	C189.871246,162.336670 192.948593,161.687851 196.025955,161.039032 
	C196.017075,180.685226 196.042328,200.331512 195.987000,219.977585 
	C195.951797,232.476364 189.789276,241.643036 179.980576,248.716980 
	C179.216370,249.268097 178.153336,249.404846 177.002930,250.044647 
	C176.776672,250.355133 176.772186,250.281387 176.798386,250.305481 
z"/>
<path fill="#A9642C" opacity="1.000000" stroke="none" 
	d="
M196.342636,160.885986 
	C192.948593,161.687851 189.871246,162.336670 186.399414,163.003418 
	C178.645233,163.685150 171.285522,164.348938 163.089081,165.010941 
	C161.498764,165.018555 160.745209,165.027969 159.991638,165.037384 
	C158.608566,165.033707 157.225479,165.030045 155.428192,165.039322 
	C140.727219,164.025513 126.328354,163.767487 112.192505,161.705902 
	C102.522507,160.295624 92.861115,157.272202 84.381927,150.658859 
	C84.013390,149.492126 84.007332,148.741486 83.977890,147.695679 
	C83.636856,146.932587 83.319199,146.464676 83.001534,145.996750 
	C83.172798,145.142044 83.344063,144.287338 84.191338,143.230469 
	C88.852882,143.357300 92.838409,143.686295 96.863510,144.387482 
	C97.397270,149.187943 100.977852,150.506378 104.314606,151.930054 
	C115.636192,156.760574 127.626579,157.496048 139.752945,158.280182 
	C159.602737,159.563751 179.027649,158.251678 198.048615,152.397736 
	C199.391998,154.818985 200.693237,156.893768 201.994492,158.968552 
	C200.216095,159.556686 198.437714,160.144821 196.342636,160.885986 
z"/>
<path fill="#235419" opacity="1.000000" stroke="none" 
	d="
M152.079681,98.129715 
	C156.966553,93.001617 161.563049,87.548363 166.829529,82.845360 
	C171.272537,78.877716 176.493164,75.780846 181.981018,73.045013 
	C174.402771,82.171921 164.085617,88.751572 159.279358,100.380928 
	C160.387604,100.740349 161.433777,101.079636 162.716904,101.657036 
	C157.084274,101.407951 155.615402,105.172333 155.550278,109.894867 
	C155.475784,115.297409 155.739319,120.704613 155.900238,126.982544 
	C155.993362,129.514557 156.042267,131.173798 156.055664,133.310486 
	C156.008148,136.915253 156.017166,140.042847 155.978333,143.169830 
	C155.938339,146.391846 154.266785,147.995163 151.051300,148.000534 
	C147.873840,148.005844 146.100815,146.505463 146.049347,143.247787 
	C145.994736,139.792191 145.991852,136.335785 146.021088,132.474045 
	C146.083542,130.433884 146.091293,128.799423 146.099045,127.164948 
	C146.099045,127.164948 146.169098,127.028130 146.464569,126.855522 
	C146.794617,125.982628 146.829178,125.282341 146.863739,124.582054 
	C146.856323,119.435951 147.051270,114.277618 146.741211,109.149818 
	C146.618332,107.117622 145.373856,105.153244 144.335968,102.922791 
	C141.066238,98.005394 138.635437,92.848412 135.003799,88.757423 
	C130.119263,83.255051 124.308273,78.575096 119.041000,73.677925 
	C126.033051,73.574631 136.259415,81.863342 148.728882,98.189438 
	C149.708008,99.310600 150.345566,99.940140 150.983109,100.569679 
	C151.348633,99.756363 151.714157,98.943039 152.079681,98.129715 
z"/>
<path fill="#A3602B" opacity="1.000000" stroke="none" 
	d="
M202.364029,158.938644 
	C200.693237,156.893768 199.391998,154.818985 198.260620,152.132843 
	C200.604507,149.265335 202.778534,147.009186 204.952560,144.753052 
	C202.485657,142.766479 200.154449,140.567490 197.501328,138.872375 
	C195.889450,137.842529 193.806931,137.482437 191.889114,137.011917 
	C187.603973,135.960632 183.289597,135.028641 179.022903,133.712067 
	C179.720840,132.214447 180.382996,131.052811 181.045166,129.891174 
	C181.480988,129.925369 181.916809,129.959564 182.839020,130.226608 
	C183.893387,130.284485 184.461334,130.109497 185.029297,129.934509 
	C185.478500,129.921738 185.927689,129.908981 186.933762,130.262848 
	C191.336380,131.398132 195.182144,132.166763 199.027893,132.935379 
	C201.137497,133.553055 203.247116,134.170746 205.718353,135.240265 
	C206.714615,135.810883 207.349213,135.929657 207.983826,136.048431 
	C213.328995,138.162659 218.592972,140.357590 219.030823,147.638641 
	C215.013672,153.851547 209.336533,157.069031 202.364029,158.938644 
z"/>
<path fill="#9F5E2B" opacity="1.000000" stroke="none" 
	d="
M145.635498,127.126892 
	C146.091293,128.799423 146.083542,130.433884 145.557312,132.488434 
	C135.970200,133.622803 126.819473,133.811981 117.858131,135.212738 
	C110.296463,136.394730 102.269867,137.377991 96.823944,144.015289 
	C92.838409,143.686295 88.852882,143.357300 84.452545,143.020706 
	C88.217224,140.200470 92.041069,136.181625 96.649223,134.823029 
	C106.645348,131.875900 116.992722,129.993484 127.294785,128.259995 
	C133.153641,127.274155 139.206482,127.441048 145.635498,127.126892 
z"/>
<path fill="#9F5F2D" opacity="1.000000" stroke="none" 
	d="
M180.850174,129.557281 
	C180.382996,131.052811 179.720840,132.214447 178.567047,133.707672 
	C170.747314,133.637177 163.419250,133.235107 156.091171,132.833038 
	C156.042267,131.173798 155.993362,129.514557 155.996735,127.444794 
	C164.251053,127.763977 172.453110,128.493668 180.850174,129.557281 
z"/>
<path fill="#9F5F2D" opacity="1.000000" stroke="none" 
	d="
M198.730911,132.713318 
	C195.182144,132.166763 191.336380,131.398132 187.256378,130.365906 
	C190.826050,130.898636 194.629990,131.694931 198.730911,132.713318 
z"/>
<path fill="#9F5F2D" opacity="1.000000" stroke="none" 
	d="
M184.848602,129.795441 
	C184.461334,130.109497 183.893387,130.284485 183.166992,130.244431 
	C183.561691,129.905060 184.114807,129.780716 184.848602,129.795441 
z"/>
<path fill="#9F5F2D" opacity="1.000000" stroke="none" 
	d="
M207.774689,135.856796 
	C207.349213,135.929657 206.714615,135.810883 206.040192,135.418182 
	C206.522110,135.317902 207.043839,135.491531 207.774689,135.856796 
z"/>
<path fill="#9F5E2B" opacity="1.000000" stroke="none" 
	d="
M146.734894,124.786308 
	C146.829178,125.282341 146.794617,125.982628 146.541260,126.860695 
	C146.416992,126.355835 146.511536,125.673203 146.734894,124.786308 
z"/>
<path fill="#934912" opacity="1.000000" stroke="none" 
	d="
M84.001274,147.990845 
	C84.007332,148.741486 84.013390,149.492126 84.033714,150.617523 
	C83.876289,150.995697 83.704597,150.999115 83.275360,151.000580 
	C82.970703,150.247543 82.923599,149.496490 83.193298,148.368439 
	C83.510117,147.991470 84.001274,147.990845 84.001274,147.990845 
z"/>
<path fill="#9F5E2B" opacity="1.000000" stroke="none" 
	d="
M83.977890,147.695679 
	C84.001274,147.990845 83.510117,147.991470 83.264603,147.997253 
	C82.953674,147.555054 82.888260,147.107086 82.912186,146.327942 
	C83.319199,146.464676 83.636856,146.932587 83.977890,147.695679 
z"/>
<path fill="#377A2D" opacity="1.000000" stroke="none" 
	d="
M152.049316,97.783821 
	C151.714157,98.943039 151.348633,99.756363 150.983109,100.569679 
	C150.345566,99.940140 149.708008,99.310600 149.024506,98.348160 
	C149.650650,97.181534 150.322723,96.347816 150.994812,95.514091 
	C151.336182,96.155373 151.677551,96.796654 152.049316,97.783821 
z"/>
<path fill="#9A5620" opacity="1.000000" stroke="none" 
	d="
M160.051239,165.361801 
	C160.745209,165.027969 161.498764,165.018555 162.629150,165.016541 
	C162.040924,165.244705 161.075882,165.465469 160.051239,165.361801 
z"/>
<path fill="#5C3310" opacity="1.000000" stroke="none" 
	d="
M156.055664,133.310486 
	C163.419250,133.235107 170.747314,133.637177 178.531250,134.043640 
	C183.289597,135.028641 187.603973,135.960632 191.889114,137.011917 
	C193.806931,137.482437 195.889450,137.842529 197.501328,138.872375 
	C200.154449,140.567490 202.485657,142.766479 204.952560,144.753052 
	C202.778534,147.009186 200.604507,149.265335 198.218475,151.786377 
	C179.027649,158.251678 159.602737,159.563751 139.752945,158.280182 
	C127.626579,157.496048 115.636192,156.760574 104.314606,151.930054 
	C100.977852,150.506378 97.397270,149.187943 96.863510,144.387482 
	C102.269867,137.377991 110.296463,136.394730 117.858131,135.212738 
	C126.819473,133.811981 135.970200,133.622803 145.502609,132.894135 
	C145.991852,136.335785 145.994736,139.792191 146.049347,143.247787 
	C146.100815,146.505463 147.873840,148.005844 151.051300,148.000534 
	C154.266785,147.995163 155.938339,146.391846 155.978333,143.169830 
	C156.017166,140.042847 156.008148,136.915253 156.055664,133.310486 
z"/>
</svg>