<svg version="1.1" id="Layer_1" xmlns="http://www.w3.org/2000/svg" xmlns:xlink="http://www.w3.org/1999/xlink" x="0px" y="0px"
	 width="100%" viewBox="0 0 300 300" enable-background="new 0 0 300 300" xml:space="preserve">
<path fill="#FDF5E4" opacity="1.000000" stroke="none" 
	d="
M200.000000,301.000000 
	C133.333344,301.000000 67.166687,301.000000 1.000027,301.000000 
	C1.000018,201.000031 1.000018,101.000061 1.000009,1.000067 
	C100.999947,1.000045 200.999893,1.000045 300.999878,1.000022 
	C300.999939,100.999939 300.999939,200.999878 300.999969,300.999908 
	C267.500000,301.000000 234.000000,301.000000 200.000000,301.000000 
M158.716095,114.124954 
	C158.812454,112.084000 158.908798,110.043037 159.319946,107.441315 
	C159.546906,106.613777 159.773865,105.786240 160.830322,104.917038 
	C186.256805,103.108963 204.142044,78.589226 205.205490,60.461216 
	C205.424164,56.733395 204.327057,55.478012 200.667725,55.346336 
	C179.833221,54.596642 160.957535,67.791618 155.130569,87.359329 
	C154.319641,90.082588 153.493011,92.801178 152.475571,96.179581 
	C147.548080,70.302330 134.240692,57.836246 110.494102,56.219070 
	C101.563187,55.610867 100.652885,56.675976 102.511948,65.558632 
	C106.541702,84.813004 123.446991,100.094833 145.501022,104.461678 
	C146.076904,105.638710 146.652771,106.815742 147.220749,108.772087 
	C147.595901,110.840454 147.971054,112.908821 148.206024,115.761787 
	C148.145477,116.555252 148.084946,117.348717 147.220901,118.062965 
	C132.591354,113.971291 118.062675,113.304291 104.000626,120.070969 
	C96.095886,123.874741 91.705688,129.795181 91.698280,139.291077 
	C91.683716,157.958160 95.553047,156.495239 77.124222,168.214569 
	C69.376030,173.141846 64.821114,180.254639 66.045570,190.961807 
	C66.038437,198.122559 66.362328,205.302750 65.943275,212.439316 
	C65.375549,222.107971 70.011673,228.183624 78.240753,232.167099 
	C90.631897,238.165344 103.650055,238.794693 116.708542,235.504639 
	C125.683479,233.243439 134.220627,233.117798 143.217682,235.388779 
	C155.385040,238.459991 167.656357,238.114197 179.461151,233.228409 
	C186.756104,230.209152 191.862823,225.553925 193.331436,217.042770 
	C193.935593,213.541458 196.768967,209.641907 199.732635,207.527008 
	C203.515671,204.827423 208.488922,203.826401 212.891251,201.956909 
	C219.708099,199.062103 226.746475,196.533493 233.171219,192.924469 
	C237.588776,190.442963 240.233063,185.832230 240.255585,180.405106 
	C240.292160,171.586685 240.148010,162.767502 240.317337,153.078445 
	C241.379379,141.894669 235.072571,135.443359 225.912460,130.997726 
	C213.975555,125.204430 201.304657,124.575195 188.472290,126.552574 
	C178.768356,128.047882 169.335464,128.199051 159.997177,123.343353 
	C159.656189,123.236794 159.315186,123.130241 158.645660,122.475449 
	C158.441467,121.653282 158.237274,120.831108 158.304779,119.336914 
	C158.353012,117.877876 158.401245,116.418846 158.716095,114.124954 
z"/>
<path fill="#1F6747" opacity="1.000000" stroke="none" 
	d="
M160.268936,123.814743 
	C169.335464,128.199051 178.768356,128.047882 188.472290,126.552574 
	C201.304657,124.575195 213.975555,125.204430 225.912460,130.997726 
	C235.072571,135.443359 241.379379,141.894669 239.919296,153.709549 
	C236.703644,159.662674 232.718704,163.844269 227.023773,165.946747 
	C219.729019,168.639862 212.358505,171.150574 204.935318,173.466385 
	C197.940323,175.648605 193.267349,179.838547 192.453873,187.309067 
	C191.671432,194.494629 187.162460,198.494980 181.232803,201.336548 
	C170.028763,206.705643 158.019394,207.269104 146.150040,205.342041 
	C136.245193,203.733917 126.703270,202.252533 116.694496,204.822952 
	C110.677452,206.368225 104.216331,207.116074 98.018448,206.832153 
	C84.978607,206.234848 73.094109,202.632233 66.183662,190.037857 
	C64.821114,180.254639 69.376030,173.141846 77.124222,168.214569 
	C95.553047,156.495239 91.683716,157.958160 91.698280,139.291077 
	C91.705688,129.795181 96.095886,123.874741 104.000626,120.070969 
	C118.062675,113.304291 132.591354,113.971291 147.611176,118.415070 
	C148.034653,119.183022 148.067871,119.598877 148.081070,120.476685 
	C148.057510,124.963699 148.053970,128.988770 148.034256,133.391205 
	C147.983841,134.524551 147.949570,135.280533 147.501755,136.028946 
	C144.310318,136.426407 141.452240,136.547607 138.773743,137.304367 
	C134.964783,138.380493 131.138794,139.617599 127.591629,141.343918 
	C123.025146,143.566299 119.958427,147.139755 119.992432,152.651001 
	C120.026123,158.111038 123.758217,160.996902 127.809280,163.345154 
	C139.005890,169.835403 151.335983,170.011597 163.606979,168.430344 
	C169.058609,167.727829 174.417160,165.376511 179.507416,163.084091 
	C183.722198,161.185928 186.830811,157.633224 186.899567,152.666565 
	C186.971680,147.458664 183.808502,143.590469 179.349533,141.884918 
	C172.774811,139.370071 165.797562,137.907623 158.976929,135.668793 
	C158.929459,134.904266 158.896805,134.467896 158.846375,133.629791 
	C158.877731,130.123825 158.926880,127.019600 159.300812,123.910301 
	C159.840057,123.875069 160.054504,123.844902 160.268936,123.814743 
z"/>
<path fill="#134D32" opacity="1.000000" stroke="none" 
	d="
M66.114616,190.499832 
	C73.094109,202.632233 84.978607,206.234848 98.018448,206.832153 
	C104.216331,207.116074 110.677452,206.368225 116.694496,204.822952 
	C126.703270,202.252533 136.245193,203.733917 146.150040,205.342041 
	C158.019394,207.269104 170.028763,206.705643 181.232803,201.336548 
	C187.162460,198.494980 191.671432,194.494629 192.453873,187.309067 
	C193.267349,179.838547 197.940323,175.648605 204.935318,173.466385 
	C212.358505,171.150574 219.729019,168.639862 227.023773,165.946747 
	C232.718704,163.844269 236.703644,159.662674 239.800705,154.144653 
	C240.148010,162.767502 240.292160,171.586685 240.255585,180.405106 
	C240.233063,185.832230 237.588776,190.442963 233.171219,192.924469 
	C226.746475,196.533493 219.708099,199.062103 212.891251,201.956909 
	C208.488922,203.826401 203.515671,204.827423 199.732635,207.527008 
	C196.768967,209.641907 193.935593,213.541458 193.331436,217.042770 
	C191.862823,225.553925 186.756104,230.209152 179.461151,233.228409 
	C167.656357,238.114197 155.385040,238.459991 143.217682,235.388779 
	C134.220627,233.117798 125.683479,233.243439 116.708542,235.504639 
	C103.650055,238.794693 90.631897,238.165344 78.240753,232.167099 
	C70.011673,228.183624 65.375549,222.107971 65.943275,212.439316 
	C66.362328,205.302750 66.038437,198.122559 66.114616,190.499832 
z"/>
<path fill="#57A230" opacity="1.000000" stroke="none" 
	d="
M145.037262,104.000122 
	C123.446991,100.094833 106.541702,84.813004 102.511948,65.558632 
	C100.652885,56.675976 101.563187,55.610867 110.494102,56.219070 
	C134.240692,57.836246 147.548080,70.302330 152.475571,96.179581 
	C153.493011,92.801178 154.319641,90.082588 155.130569,87.359329 
	C160.957535,67.791618 179.833221,54.596642 200.667725,55.346336 
	C204.327057,55.478012 205.424164,56.733395 205.205490,60.461216 
	C204.142044,78.589226 186.256805,103.108963 160.407166,104.578346 
	C160.006516,103.520226 160.028992,102.800804 160.302444,101.856712 
	C161.382721,99.777367 162.212036,97.922676 163.303894,95.860870 
	C167.804214,90.220345 172.041992,84.786949 176.579956,79.278137 
	C177.495651,78.766426 178.111160,78.330124 178.726654,77.893814 
	C178.553970,77.651764 178.381287,77.409714 178.208618,77.167664 
	C177.417511,77.714615 176.626404,78.261566 175.495605,78.889847 
	C168.181747,83.286980 161.288528,87.694916 156.650940,95.132278 
	C155.573410,96.500519 154.773972,97.722923 153.613037,98.959290 
	C152.528000,98.971016 151.804443,98.968781 150.910385,98.670120 
	C145.195023,89.741661 138.410446,82.489105 129.295029,77.771217 
	C134.352737,85.678154 139.240326,93.319145 144.217834,101.266586 
	C144.550903,102.382057 144.794083,103.191093 145.037262,104.000122 
M180.606094,76.512772 
	C180.606094,76.512772 180.404175,76.400970 180.404175,76.400970 
	C180.404175,76.400970 180.434692,76.617287 180.606094,76.512772 
z"/>
<path fill="#39842E" opacity="1.000000" stroke="none" 
	d="
M148.050415,133.013824 
	C148.053970,128.988770 148.057510,124.963699 148.524643,120.471695 
	C152.003189,120.006142 155.018127,120.007538 158.033081,120.008942 
	C158.237274,120.831108 158.441467,121.653282 158.812317,122.972565 
	C158.978989,123.469673 158.976028,123.915375 158.976028,123.915375 
	C158.926880,127.019600 158.877731,130.123825 158.425323,133.620331 
	C154.698166,133.679688 151.374298,133.346756 148.050415,133.013824 
z"/>
<path fill="#266D35" opacity="1.000000" stroke="none" 
	d="
M160.051483,102.081375 
	C160.028992,102.800804 160.006516,103.520226 159.992416,104.599182 
	C159.773865,105.786240 159.546906,106.613777 158.704788,107.721390 
	C154.469299,107.998573 150.848969,107.995682 147.228638,107.992783 
	C146.652771,106.815742 146.076904,105.638710 145.269135,104.230896 
	C144.794083,103.191093 144.550903,102.382057 144.572723,101.228508 
	C146.918777,100.244843 148.999847,99.605690 151.080902,98.966537 
	C151.804443,98.968781 152.528000,98.971016 153.696320,99.325897 
	C156.111221,100.479492 158.081345,101.280434 160.051483,102.081375 
z"/>
<path fill="#2D7633" opacity="1.000000" stroke="none" 
	d="
M147.224701,108.382431 
	C150.848969,107.995682 154.469299,107.998573 158.547394,108.001770 
	C158.908798,110.043037 158.812454,112.084000 158.168701,114.552650 
	C154.529602,114.979294 151.437912,114.978241 148.346207,114.977188 
	C147.971054,112.908821 147.595901,110.840454 147.224701,108.382431 
z"/>
<path fill="#398038" opacity="1.000000" stroke="none" 
	d="
M148.276123,115.369484 
	C151.437912,114.978241 154.529602,114.979294 158.035400,114.970078 
	C158.401245,116.418846 158.353012,117.877876 158.168930,119.672928 
	C155.018127,120.007538 152.003189,120.006142 148.544662,120.009735 
	C148.067871,119.598877 148.034653,119.183022 148.012939,118.454674 
	C148.084946,117.348717 148.145477,116.555252 148.276123,115.369484 
z"/>
<path fill="#398038" opacity="1.000000" stroke="none" 
	d="
M159.300812,123.910301 
	C158.976028,123.915375 158.978989,123.469673 158.976593,123.246681 
	C159.315186,123.130241 159.656189,123.236794 160.133057,123.579048 
	C160.054504,123.844902 159.840057,123.875069 159.300812,123.910301 
z"/>
<path fill="#124C31" opacity="1.000000" stroke="none" 
	d="
M158.991760,135.996964 
	C165.797562,137.907623 172.774811,139.370071 179.349533,141.884918 
	C183.808502,143.590469 186.971680,147.458664 186.899567,152.666565 
	C186.830811,157.633224 183.722198,161.185928 179.507416,163.084091 
	C174.417160,165.376511 169.058609,167.727829 163.606979,168.430344 
	C151.335983,170.011597 139.005890,169.835403 127.809280,163.345154 
	C123.758217,160.996902 120.026123,158.111038 119.992432,152.651001 
	C119.958427,147.139755 123.025146,143.566299 127.591629,141.343918 
	C131.138794,139.617599 134.964783,138.380493 138.773743,137.304367 
	C141.452240,136.547607 144.310318,136.426407 147.524567,136.463455 
	C147.633286,141.826462 147.295135,146.746735 146.980911,151.668533 
	C146.660309,156.689758 150.272598,156.060486 153.386871,156.068405 
	C156.954468,156.077499 159.675507,154.745590 159.667862,150.776550 
	C159.658371,145.849594 159.235870,140.923462 158.991760,135.996964 
z"/>
<path fill="#408D2C" opacity="1.000000" stroke="none" 
	d="
M158.976929,135.668793 
	C159.235870,140.923462 159.658371,145.849594 159.667862,150.776550 
	C159.675507,154.745590 156.954468,156.077499 153.386871,156.068405 
	C150.272598,156.060486 146.660309,156.689758 146.980911,151.668533 
	C147.295135,146.746735 147.633286,141.826462 147.938126,136.471008 
	C147.949570,135.280533 147.983841,134.524551 148.034256,133.391205 
	C151.374298,133.346756 154.698166,133.679688 158.443100,134.022095 
	C158.896805,134.467896 158.929459,134.904266 158.976929,135.668793 
z"/>
<path fill="#1B5F35" opacity="1.000000" stroke="none" 
	d="
M150.910385,98.670120 
	C148.999847,99.605690 146.918777,100.244843 144.482819,100.922058 
	C139.240326,93.319145 134.352737,85.678154 129.295029,77.771217 
	C138.410446,82.489105 145.195023,89.741661 150.910385,98.670120 
z"/>
<path fill="#1C5E35" opacity="1.000000" stroke="none" 
	d="
M176.279770,79.353546 
	C172.041992,84.786949 167.804214,90.220345 163.034088,95.572884 
	C160.644180,95.323494 158.786606,95.154968 156.929031,94.986450 
	C161.288528,87.694916 168.181747,83.286980 175.609222,79.024063 
	C176.062546,79.076950 176.279770,79.353546 176.279770,79.353546 
z"/>
<path fill="#206634" opacity="1.000000" stroke="none" 
	d="
M156.650940,95.132278 
	C158.786606,95.154968 160.644180,95.323494 162.771545,95.779999 
	C162.212036,97.922676 161.382721,99.777367 160.302444,101.856712 
	C158.081345,101.280434 156.111221,100.479492 154.057800,99.311935 
	C154.773972,97.722923 155.573410,96.500519 156.650940,95.132278 
z"/>
<path fill="#1C5E35" opacity="1.000000" stroke="none" 
	d="
M175.948914,78.942734 
	C176.626404,78.261566 177.417511,77.714615 178.208618,77.167664 
	C178.381287,77.409714 178.553970,77.651764 178.726654,77.893814 
	C178.111160,78.330124 177.495651,78.766426 176.579956,79.278137 
	C176.279770,79.353546 176.062546,79.076950 175.948914,78.942734 
z"/>
<path fill="#1C5E35" opacity="1.000000" stroke="none" 
	d="
M180.520386,76.565033 
	C180.434692,76.617287 180.404175,76.400970 180.404175,76.400970 
	C180.404175,76.400970 180.606094,76.512772 180.520386,76.565033 
z"/>
</svg>