<svg version="1.1" id="Layer_1" xmlns="http://www.w3.org/2000/svg" xmlns:xlink="http://www.w3.org/1999/xlink" x="0px" y="0px"
	 width="100%" viewBox="0 0 300 300" enable-background="new 0 0 300 300" xml:space="preserve">
<path fill="#FDF5E4" opacity="1.000000" stroke="none" 
	d="
M197.000000,301.000000 
	C131.333344,301.000000 66.166687,301.000000 1.000026,301.000000 
	C1.000017,201.000031 1.000017,101.000061 1.000009,1.000067 
	C100.999947,1.000044 200.999893,1.000044 300.999878,1.000022 
	C300.999939,100.999939 300.999939,200.999878 300.999969,300.999908 
	C266.500000,301.000000 232.000000,301.000000 197.000000,301.000000 
M80.136520,230.733063 
	C81.108673,231.015305 82.080826,231.297562 83.738930,231.933350 
	C104.410057,238.994293 125.069794,246.089081 145.772552,253.056030 
	C147.551834,253.654816 149.616394,253.405853 152.317810,253.565460 
	C174.426758,246.161270 196.553665,238.809357 218.606079,231.240448 
	C220.149094,230.710861 221.140579,228.574417 222.821136,226.456268 
	C222.874023,212.851028 222.982010,199.245667 222.954315,185.640579 
	C222.942215,179.694809 222.652435,173.749619 222.484360,167.035873 
	C222.483536,165.755432 222.482712,164.474991 222.842880,162.432083 
	C222.721359,154.555862 222.599823,146.679657 222.475586,138.100281 
	C222.479187,137.397171 222.482773,136.694046 222.788528,135.826614 
	C222.693054,135.536682 222.597565,135.246750 222.364975,134.271637 
	C221.642288,133.470947 220.919617,132.670242 219.670715,131.342651 
	C217.448257,130.895767 215.225815,130.448883 212.649719,129.739212 
	C212.106949,129.846436 211.564194,129.953674 210.573502,129.988495 
	C210.573502,129.988495 210.120926,129.956421 209.860352,129.391708 
	C208.574936,129.266586 207.289536,129.141449 205.591385,128.937759 
	C205.591385,128.937759 205.171249,128.936981 204.838287,128.263794 
	C203.601974,127.825829 202.390656,127.290985 201.125549,126.964638 
	C185.507187,122.935753 169.880951,118.937302 154.171890,114.042870 
	C154.228653,109.368828 153.286758,104.487556 157.782288,100.675468 
	C162.672836,99.761841 167.747681,99.399910 172.421829,97.838486 
	C192.009506,91.295128 205.289093,78.876419 208.715790,57.595142 
	C209.413391,53.262810 207.850113,51.272346 203.575119,51.246597 
	C200.581512,51.228565 197.574814,51.084644 194.595917,51.300240 
	C176.077393,52.640518 155.484970,61.992554 151.189026,88.004616 
	C150.981903,89.258820 150.371429,90.446411 149.538803,92.847122 
	C145.526489,67.969391 129.871841,52.990784 107.417221,51.601460 
	C106.278458,51.593456 105.139702,51.585453 103.191254,51.334988 
	C101.794403,51.408775 100.397545,51.482563 98.329483,51.336212 
	C97.196312,51.503284 96.063133,51.670353 94.097221,51.792252 
	C88.515137,52.967190 91.332695,56.950855 91.274742,60.618324 
	C91.538521,61.407692 91.802299,62.197060 91.997063,63.662350 
	C92.565689,65.099167 93.134315,66.535980 93.775078,68.520142 
	C93.872009,68.676567 93.968948,68.833000 94.089043,69.642830 
	C94.926888,71.134750 95.764725,72.626671 96.758209,74.748520 
	C97.139641,75.252449 97.521072,75.756386 98.042099,76.915154 
	C106.258430,89.047806 117.746376,96.144722 132.610672,99.239349 
	C133.048248,99.244453 133.485825,99.249557 134.479324,99.694366 
	C135.649704,99.805992 136.820099,99.917625 138.610657,100.354492 
	C139.764114,100.388824 140.917572,100.423164 142.708405,100.926102 
	C146.238419,105.416275 145.267212,110.577072 144.104996,115.779182 
	C141.079407,116.592827 138.070206,117.474426 135.025375,118.208206 
	C122.689644,121.181015 110.342957,124.108368 97.300293,126.963852 
	C96.865700,127.116058 96.431114,127.268257 95.248749,127.532921 
	C91.823280,128.336670 88.397820,129.140427 84.229813,129.889389 
	C82.477669,130.570374 80.725525,131.251343 78.283783,132.305099 
	C77.956985,133.727463 77.347816,135.149277 77.345039,136.572266 
	C77.287979,165.783356 77.250710,194.994843 77.406143,224.205200 
	C77.416840,226.216217 78.969032,228.219040 80.011871,230.060562 
	C80.011871,230.060562 79.801514,230.215118 80.136520,230.733063 
z"/>
<path fill="#9B5721" opacity="1.000000" stroke="none" 
	d="
M220.196930,131.869553 
	C220.919617,132.670242 221.642288,133.470947 222.273926,134.602661 
	C222.182892,134.933685 221.865448,134.974350 221.649139,134.974030 
	C221.432816,134.973694 221.001160,135.002731 220.601334,135.011292 
	C198.068039,140.871033 175.953384,146.795441 153.779465,152.489090 
	C150.695358,153.281006 149.934662,154.632935 149.943848,157.597198 
	C150.037796,187.915848 149.977783,218.234985 150.068756,248.553650 
	C150.073761,250.220795 151.033249,251.885086 151.548447,253.550690 
	C149.616394,253.405853 147.551834,253.654816 145.772552,253.056030 
	C125.069794,246.089081 104.410057,238.994293 83.285057,231.446136 
	C81.821289,230.710999 80.811401,230.463058 79.801514,230.215118 
	C79.801514,230.215118 80.011871,230.060562 79.906281,229.710220 
	C79.519539,227.406387 78.996323,225.453232 78.993553,223.499359 
	C78.951790,193.973328 78.978355,164.447235 79.400299,134.943314 
	C97.624756,139.510117 115.412300,144.158722 133.264679,148.543320 
	C139.565887,150.090912 145.558807,153.021698 152.596268,151.027237 
	C170.442795,145.969330 188.464432,141.532486 206.368683,136.672867 
	C211.066574,135.397751 215.592194,133.487900 220.196930,131.869553 
z"/>
<path fill="#764015" opacity="1.000000" stroke="none" 
	d="
M151.933136,253.558075 
	C151.033249,251.885086 150.073761,250.220795 150.068756,248.553650 
	C149.977783,218.234985 150.037796,187.915848 149.943848,157.597198 
	C149.934662,154.632935 150.695358,153.281006 153.779465,152.489090 
	C175.953384,146.795441 198.068039,140.871033 220.695770,135.216339 
	C221.355255,135.673370 221.573898,135.876373 222.007751,136.048981 
	C222.169525,136.076126 222.486374,135.990936 222.486374,135.990936 
	C222.482773,136.694046 222.479187,137.397171 222.316132,138.911133 
	C222.265091,147.546158 222.373489,155.370361 222.481873,163.194550 
	C222.482712,164.474991 222.483536,165.755432 222.321793,167.878098 
	C222.235672,188.208618 222.312103,207.696899 222.388550,227.185181 
	C221.140579,228.574417 220.149094,230.710861 218.606079,231.240448 
	C196.553665,238.809357 174.426758,246.161270 151.933136,253.558075 
z"/>
<path fill="#37792D" opacity="1.000000" stroke="none" 
	d="
M96.602562,74.118591 
	C95.764725,72.626671 94.926888,71.134750 94.223091,69.182938 
	C94.139069,68.472961 93.921005,68.222885 93.702934,67.972801 
	C93.134315,66.535980 92.565689,65.099167 92.258804,63.131050 
	C92.131348,61.732880 91.742149,60.866009 91.352951,59.999138 
	C91.332695,56.950855 88.515137,52.967190 94.706635,52.081619 
	C96.544266,52.099442 97.772484,51.827896 99.000694,51.556351 
	C100.397545,51.482563 101.794403,51.408775 103.713303,51.744781 
	C105.498695,52.080727 106.762032,52.006882 108.025368,51.933037 
	C129.871841,52.990784 145.526489,67.969391 149.538803,92.847122 
	C150.371429,90.446411 150.981903,89.258820 151.189026,88.004616 
	C155.484970,61.992554 176.077393,52.640518 194.595917,51.300240 
	C197.574814,51.084644 200.581512,51.228565 203.575119,51.246597 
	C207.850113,51.272346 209.413391,53.262810 208.715790,57.595142 
	C205.289093,78.876419 192.009506,91.295128 172.421829,97.838486 
	C167.747681,99.399910 162.672836,99.761841 157.431946,100.300400 
	C165.061737,90.367889 173.041870,80.810448 181.124908,71.129776 
	C180.145767,71.412979 178.805481,71.494568 177.834198,72.135422 
	C173.962418,74.690033 169.789688,76.989914 166.499847,80.179756 
	C161.041275,85.472427 156.177673,91.378738 150.692139,97.020470 
	C149.825119,97.039658 149.329407,97.064934 148.557724,96.904144 
	C140.019547,86.418983 131.673904,76.218994 118.887123,71.144791 
	C126.318130,79.871513 133.614258,88.439835 140.599365,97.058037 
	C139.522385,98.081696 138.756424,99.055473 137.990479,100.029251 
	C136.820099,99.917625 135.649704,99.805992 134.102722,99.220894 
	C133.151917,98.824684 132.577728,98.901947 132.003540,98.979210 
	C117.746376,96.144722 106.258430,89.047806 97.962746,76.239212 
	C97.456451,75.081711 97.029510,74.600151 96.602562,74.118591 
z"/>
<path fill="#A8632D" opacity="1.000000" stroke="none" 
	d="
M219.933823,131.606110 
	C215.592194,133.487900 211.066574,135.397751 206.368683,136.672867 
	C188.464432,141.532486 170.442795,145.969330 152.596268,151.027237 
	C145.558807,153.021698 139.565887,150.090912 133.264679,148.543320 
	C115.412300,144.158722 97.624756,139.510117 79.398857,134.571442 
	C78.981819,133.429047 78.977600,132.680695 78.973381,131.932327 
	C80.725525,131.251343 82.477669,130.570374 84.838585,130.188324 
	C88.963745,129.465012 92.480133,128.442734 95.996521,127.420464 
	C96.431114,127.268257 96.865700,127.116058 97.728012,127.357811 
	C99.412834,128.010696 100.708244,128.155853 101.915695,128.562302 
	C103.004692,128.928879 103.997398,129.581497 104.808456,130.339264 
	C103.537735,131.115616 102.491119,131.660660 101.444511,132.205719 
	C101.460999,132.629074 101.477486,133.052414 101.493965,133.475769 
	C112.524170,136.323669 123.510887,139.358078 134.602142,141.944107 
	C140.523788,143.324814 146.917206,145.572891 152.589539,144.566162 
	C167.046921,142.000229 181.228226,137.862427 195.488602,134.230286 
	C196.779617,133.901443 197.843842,132.682190 199.093323,131.531067 
	C201.172577,130.436142 203.171921,129.686569 205.171249,128.936981 
	C205.171249,128.936981 205.591385,128.937759 206.048615,129.241760 
	C207.710876,129.682648 208.915909,129.819534 210.120926,129.956421 
	C210.120926,129.956421 210.573502,129.988495 210.951416,130.233841 
	C211.887344,130.320129 212.445343,130.161057 213.003357,130.001999 
	C215.225815,130.448883 217.448257,130.895767 219.933823,131.606110 
z"/>
<path fill="#225319" opacity="1.000000" stroke="none" 
	d="
M151.063446,97.026566 
	C156.177673,91.378738 161.041275,85.472427 166.499847,80.179756 
	C169.789688,76.989914 173.962418,74.690033 177.834198,72.135422 
	C178.805481,71.494568 180.145767,71.412979 181.124908,71.129776 
	C173.041870,80.810448 165.061737,90.367889 157.025055,100.245537 
	C153.286758,104.487556 154.228653,109.368828 154.129822,114.901047 
	C154.110687,117.470490 154.133621,119.181747 154.114273,121.344925 
	C154.155457,125.693192 154.748505,129.678329 154.092133,133.445786 
	C153.795700,135.147171 151.012299,136.415268 149.357239,137.879944 
	C147.919174,136.142120 145.629272,134.578720 145.229843,132.628204 
	C144.515656,129.140747 144.941132,125.419899 144.953186,121.364075 
	C144.978043,119.170227 144.939880,117.408928 144.901733,115.647629 
	C145.267212,110.577072 146.238419,105.416275 142.377426,100.384995 
	C141.667755,98.898651 141.289062,97.953407 140.910385,97.008156 
	C133.614258,88.439835 126.318130,79.871513 118.887123,71.144791 
	C131.673904,76.218994 140.019547,86.418983 148.597855,97.239166 
	C149.314301,98.337593 149.714615,98.914925 150.114944,99.492264 
	C150.431107,98.670364 150.747269,97.848465 151.063446,97.026566 
z"/>
<path fill="#A3612E" opacity="1.000000" stroke="none" 
	d="
M154.156555,120.893013 
	C154.133621,119.181747 154.110687,117.470490 154.172256,115.345108 
	C169.880951,118.937302 185.507187,122.935753 201.125549,126.964638 
	C202.390656,127.290985 203.601974,127.825829 205.004761,128.600388 
	C203.171921,129.686569 201.172577,130.436142 198.713043,131.506897 
	C183.554092,128.183044 168.855316,124.538025 154.156555,120.893013 
z"/>
<path fill="#A3612E" opacity="1.000000" stroke="none" 
	d="
M144.503357,115.713409 
	C144.939880,117.408928 144.978043,119.170227 144.539764,121.409294 
	C142.760269,122.055321 141.436539,122.128525 140.157333,122.406677 
	C128.444672,124.953514 116.739761,127.535934 105.032578,130.107971 
	C103.997398,129.581497 103.004692,128.928879 101.915695,128.562302 
	C100.708244,128.155853 99.412834,128.010696 98.078018,127.402130 
	C110.342957,124.108368 122.689644,121.181015 135.025375,118.208206 
	C138.070206,117.474426 141.079407,116.592827 144.503357,115.713409 
z"/>
<path fill="#A3663C" opacity="1.000000" stroke="none" 
	d="
M78.628586,132.118713 
	C78.977600,132.680695 78.981819,133.429047 78.987473,134.549286 
	C78.978355,164.447235 78.951790,193.973328 78.993553,223.499359 
	C78.996323,225.453232 79.519539,227.406387 79.802521,229.792770 
	C78.969032,228.219040 77.416840,226.216217 77.406143,224.205200 
	C77.250710,194.994843 77.287979,165.783356 77.345039,136.572266 
	C77.347816,135.149277 77.956985,133.727463 78.628586,132.118713 
z"/>
<path fill="#B0938A" opacity="1.000000" stroke="none" 
	d="
M222.604843,226.820740 
	C222.312103,207.696899 222.235672,188.208618 222.323990,168.262238 
	C222.652435,173.749619 222.942215,179.694809 222.954315,185.640579 
	C222.982010,199.245667 222.874023,212.851028 222.604843,226.820740 
z"/>
<path fill="#B0938A" opacity="1.000000" stroke="none" 
	d="
M222.662384,162.813324 
	C222.373489,155.370361 222.265091,147.546158 222.317505,139.262695 
	C222.599823,146.679657 222.721359,154.555862 222.662384,162.813324 
z"/>
<path fill="#A3612E" opacity="1.000000" stroke="none" 
	d="
M95.622635,127.476692 
	C92.480133,128.442734 88.963745,129.465012 85.209854,130.215729 
	C88.397820,129.140427 91.823280,128.336670 95.622635,127.476692 
z"/>
<path fill="#377A2D" opacity="1.000000" stroke="none" 
	d="
M140.599365,97.058037 
	C141.289062,97.953407 141.667755,98.898651 142.058746,100.150696 
	C140.917572,100.423164 139.764114,100.388824 138.300568,100.191872 
	C138.756424,99.055473 139.522385,98.081696 140.599365,97.058037 
z"/>
<path fill="#377A2D" opacity="1.000000" stroke="none" 
	d="
M98.665085,51.446281 
	C97.772484,51.827896 96.544266,52.099442 95.123009,52.104210 
	C96.063133,51.670353 97.196312,51.503284 98.665085,51.446281 
z"/>
<path fill="#377A2D" opacity="1.000000" stroke="none" 
	d="
M107.721298,51.767250 
	C106.762032,52.006882 105.498695,52.080727 104.118149,51.866013 
	C105.139702,51.585453 106.278458,51.593456 107.721298,51.767250 
z"/>
<path fill="#A3612E" opacity="1.000000" stroke="none" 
	d="
M209.990631,129.674072 
	C208.915909,129.819534 207.710876,129.682648 206.254990,129.281052 
	C207.289536,129.141449 208.574936,129.266586 209.990631,129.674072 
z"/>
<path fill="#377A2D" opacity="1.000000" stroke="none" 
	d="
M91.313843,60.308731 
	C91.742149,60.866009 92.131348,61.732880 92.293312,62.793091 
	C91.802299,62.197060 91.538521,61.407692 91.313843,60.308731 
z"/>
<path fill="#A3663C" opacity="1.000000" stroke="none" 
	d="
M79.969017,230.474091 
	C80.811401,230.463058 81.821289,230.710999 82.942085,231.269379 
	C82.080826,231.297562 81.108673,231.015305 79.969017,230.474091 
z"/>
<path fill="#A3612E" opacity="1.000000" stroke="none" 
	d="
M212.826538,129.870605 
	C212.445343,130.161057 211.887344,130.320129 211.175385,130.270050 
	C211.564194,129.953674 212.106949,129.846436 212.826538,129.870605 
z"/>
<path fill="#377A2D" opacity="1.000000" stroke="none" 
	d="
M96.680389,74.433556 
	C97.029510,74.600151 97.456451,75.081711 97.892944,75.911797 
	C97.521072,75.756386 97.139641,75.252449 96.680389,74.433556 
z"/>
<path fill="#377A2D" opacity="1.000000" stroke="none" 
	d="
M132.307098,99.109283 
	C132.577728,98.901947 133.151917,98.824684 133.824753,99.001038 
	C133.485825,99.249557 133.048248,99.244453 132.307098,99.109283 
z"/>
<path fill="#B0938A" opacity="1.000000" stroke="none" 
	d="
M222.342484,134.945251 
	C222.597565,135.246750 222.693054,135.536682 222.637451,135.908783 
	C222.486374,135.990936 222.169525,136.076126 222.045837,135.787720 
	C221.903275,135.324326 221.884369,135.149338 221.865448,134.974350 
	C221.865448,134.974350 222.182892,134.933685 222.342484,134.945251 
z"/>
<path fill="#377A2D" opacity="1.000000" stroke="none" 
	d="
M93.739006,68.246475 
	C93.921005,68.222885 94.139069,68.472961 94.211510,68.856232 
	C93.968948,68.833000 93.872009,68.676567 93.739006,68.246475 
z"/>
<path fill="#6F360E" opacity="1.000000" stroke="none" 
	d="
M221.649139,134.974030 
	C221.884369,135.149338 221.903275,135.324326 221.884064,135.760559 
	C221.573898,135.876373 221.355255,135.673370 221.095612,135.207779 
	C221.001160,135.002731 221.432816,134.973694 221.649139,134.974030 
z"/>
<path fill="#377A2D" opacity="1.000000" stroke="none" 
	d="
M150.692139,97.020477 
	C150.747269,97.848465 150.431107,98.670364 150.114944,99.492264 
	C149.714615,98.914925 149.314301,98.337593 148.873840,97.425232 
	C149.329407,97.064934 149.825119,97.039658 150.692139,97.020477 
z"/>
<path fill="#5F3410" opacity="1.000000" stroke="none" 
	d="
M104.808456,130.339264 
	C116.739761,127.535934 128.444672,124.953514 140.157333,122.406677 
	C141.436539,122.128525 142.760269,122.055321 144.476776,121.841843 
	C144.941132,125.419899 144.515656,129.140747 145.229843,132.628204 
	C145.629272,134.578720 147.919174,136.142120 149.357239,137.879944 
	C151.012299,136.415268 153.795700,135.147171 154.092133,133.445786 
	C154.748505,129.678329 154.155457,125.693192 154.114258,121.344925 
	C168.855316,124.538025 183.554092,128.183044 198.633118,131.852249 
	C197.843842,132.682190 196.779617,133.901443 195.488602,134.230286 
	C181.228226,137.862427 167.046921,142.000229 152.589539,144.566162 
	C146.917206,145.572891 140.523788,143.324814 134.602142,141.944107 
	C123.510887,139.358078 112.524170,136.323669 101.493965,133.475769 
	C101.477486,133.052414 101.460999,132.629074 101.444511,132.205719 
	C102.491119,131.660660 103.537735,131.115616 104.808456,130.339264 
z"/>
</svg>